<svg width="196" height="200" viewBox="0 0 196 200" fill="none" xmlns="http://www.w3.org/2000/svg">
<path d="M95.4651 189.107C95.4651 189.107 90.7349 178.467 98.4181 171.053C106.101 163.653 107.473 164.293 110.322 158.267C113.183 152.24 115.731 145.56 121.246 144.067C126.76 142.56 131.634 144.867 135.867 144.493C141.146 144.027 142.61 140.493 149.796 139.107C156.735 137.787 161.609 143.2 164.562 149.013C167.515 154.827 165.738 155 174.192 156.933C182.659 158.867 185.011 165.187 185.664 171.053C186.305 176.707 195.634 174.187 191.113 189.107H95.4651Z" fill="#006B27"/>
<path d="M155.559 143.2L144.805 189.107" stroke="white" stroke-width="1.875" stroke-miterlimit="10"/>
<path d="M176.099 162.947L149.639 189.107" stroke="white" stroke-width="1.875" stroke-miterlimit="10"/>
<path d="M188.474 179.773L154.304 189.107" stroke="white" stroke-width="1.875" stroke-miterlimit="10"/>
<path d="M121.455 148.6L141.251 189.107" stroke="white" stroke-width="1.875" stroke-miterlimit="10"/>
<path d="M103.383 173.427L136.521 189.107" stroke="white" stroke-width="1.875" stroke-miterlimit="10"/>
<path d="M166.313 65.5867C181.85 65.5867 194.445 52.7342 194.445 36.88C194.445 21.0257 181.85 8.17333 166.313 8.17333C150.775 8.17333 138.18 21.0257 138.18 36.88C138.18 52.7342 150.775 65.5867 166.313 65.5867Z" fill="#FFC000"/>
<path d="M38.8551 156.57C39.3083 153.72 37.412 151.036 34.6197 150.573C31.8274 150.111 29.1963 152.046 28.7431 154.895C28.2899 157.744 30.1861 160.429 32.9785 160.892C35.7708 161.354 38.4018 159.419 38.8551 156.57Z" stroke="#FF478B" stroke-width="3.75" stroke-miterlimit="10"/>
<path d="M76.7013 58.9867C77.6755 58.9867 78.4653 58.1808 78.4653 57.1867C78.4653 56.1926 77.6755 55.3867 76.7013 55.3867C75.7271 55.3867 74.9373 56.1926 74.9373 57.1867C74.9373 58.1808 75.7271 58.9867 76.7013 58.9867Z" fill="#FF4B85"/>
<path d="M153.716 189.853H145.21L163.163 31.2933H171.67C174.1 31.2933 175.838 33.2933 175.551 35.7733L158.603 185.373C158.329 187.853 156.147 189.853 153.716 189.853Z" fill="#006AD3"/>
<path d="M80.4515 189.853H144.282C146.817 189.853 149.104 187.76 149.404 185.173L166.299 35.9733C166.6 33.3867 164.771 31.2933 162.236 31.2933H98.4051C95.8701 31.2933 93.5835 33.3867 93.2829 35.9733L76.3877 185.173C76.1003 187.76 77.9165 189.853 80.4515 189.853Z" fill="#2E3744"/>
<path d="M80.9872 181.32H145.667L161.687 39.8267H97.007L80.9872 181.32Z" fill="white"/>
<path d="M163.83 100.627C164.967 100.627 165.999 99.68 166.13 98.52L169.971 64.56C170.102 63.4 169.279 62.4533 168.142 62.4533C167.005 62.4533 165.973 63.4 165.842 64.56L162.001 98.52C161.87 99.68 162.68 100.627 163.83 100.627Z" stroke="white" stroke-width="1.59" stroke-miterlimit="10"/>
<path d="M167.097 64.5333C167.044 65 167.371 65.36 167.815 65.36C168.259 65.36 168.678 64.9867 168.717 64.5333C168.769 64.0667 168.442 63.7067 167.998 63.7067C167.554 63.7067 167.149 64.0667 167.097 64.5333Z" stroke="white" stroke-width="1.59" stroke-miterlimit="10"/>
<path d="M126.119 36.28H137.723C138.18 36.28 138.585 35.9067 138.624 35.4533C138.677 34.9867 138.35 34.6267 137.906 34.6267H126.302C125.845 34.6267 125.44 35 125.401 35.4533C125.349 35.92 125.662 36.28 126.119 36.28Z" fill="#006AD3"/>
<path d="M121.063 35.4533C120.971 36.24 121.52 36.88 122.291 36.88C123.062 36.88 123.754 36.24 123.846 35.4533C123.937 34.6667 123.389 34.0267 122.618 34.0267C121.847 34.0267 121.141 34.6667 121.063 35.4533Z" fill="#006AD3"/>
<path d="M73.2517 109.307L54.2528 108.933L19.1427 108.253L19.3648 106.44L27.1917 44.88L40.3107 45.1733L46.844 45.32L62.2888 45.6533L62.7461 45.6667L67.4109 73.9067L69.0181 83.6667V83.68L69.5016 86.56L69.9459 89.28L71.0435 95.88L71.6053 99.36L72.9512 107.467L73.2517 109.307Z" fill="#AD192A"/>
<path d="M46.844 45.32L45.472 55.3867H38.9125L40.3107 45.1733L46.844 45.32Z" fill="#FFD7E5"/>
<path d="M62.3019 45.56L54.2528 108.933L73.2517 109.307L62.7461 45.6667L62.3019 45.56Z" fill="#AD192A"/>
<path d="M59.0674 73.7307L58.438 107.177L105.39 108.097L106.02 74.6508L59.0674 73.7307Z" fill="#FFC000"/>
<path d="M57.848 73.7187L57.6649 83.4501L107.047 84.4178L107.23 74.6864L57.848 73.7187Z" fill="#FFC000"/>
<path d="M79.1184 74.121L78.489 107.568L85.3476 107.702L85.977 74.2554L79.1184 74.121Z" fill="white"/>
<path opacity="0.26" d="M105.722 90.52L58.8523 85.4L58.8784 83.48L105.84 84.4L105.722 90.52Z" fill="black"/>
<path d="M127.57 113.4C128.302 113.333 128.707 112.507 128.315 111.867C124.107 105.147 117.783 86 97.6864 87.1733C80.6213 88.1733 60.956 90.0667 52.2014 90.9467C50.6856 91.0933 50.2283 93.12 51.5219 93.9333L53.7955 95.3867C55.5595 96.5067 57.624 97.0133 59.6886 96.84L75.5645 95.4933C79.2363 95.1867 82.7643 97.0267 84.6459 100.253L99.568 125.813C99.764 126.147 100.117 126.333 100.496 126.293L127.57 113.4Z" fill="#FF7F72"/>
<path d="M54.6056 106.387C73.0427 97.8933 85.7696 94.6533 92.8517 93.4267C96.5365 92.7867 100.078 95.1733 100.94 98.8933L103.122 108.4C104.102 112.693 101.123 116.88 96.824 117.24L52.8416 120.973C52.2275 121.027 51.6003 121 50.9992 120.88L5.34428 112.48C4.01148 112.24 3.46268 110.6 4.36428 109.573C5.52721 108.253 10.0483 105.947 13.9029 106.213C20.3579 106.667 45.0931 106.973 51.6003 107.053C52.6456 107.04 53.6648 106.827 54.6056 106.387Z" fill="#FF7F72"/>
<path d="M123.088 102.44L138.363 129.12C138.363 129.12 128.419 146.92 106.167 144.68L97.3206 121.933L123.088 102.44Z" fill="#FF7F72"/>
<path d="M135.841 138.053C135.841 138.053 133.777 141.92 124.63 145.8" stroke="#006AD3" stroke-width="1.875" stroke-miterlimit="10"/>
<path d="M101.175 141.92C101.175 141.92 104.102 148.6 107.042 148.253" stroke="#006AD3" stroke-width="1.875" stroke-miterlimit="10"/>
<path d="M120.501 150.013C120.501 150.013 125.466 149.293 129.948 146.467" stroke="#006AD3" stroke-width="1.875" stroke-miterlimit="10"/>
<path d="M7.86614 86.88C10.9837 86.88 13.5109 84.3012 13.5109 81.12C13.5109 77.9388 10.9837 75.36 7.86614 75.36C4.74861 75.36 2.22134 77.9388 2.22134 81.12C2.22134 84.3012 4.74861 86.88 7.86614 86.88Z" fill="#FFC000"/>
<path d="M67.9336 32.68C65.0459 33.4 64.4709 33.9867 63.7523 36.9467C63.0467 34 62.4717 33.4133 59.5709 32.68C62.4587 31.96 63.0336 31.3733 63.7523 28.4133C64.4579 31.3733 65.0328 31.96 67.9336 32.68Z" fill="#FFC000"/>
<path d="M48.0984 189.6C48.0984 189.6 46.1515 185.52 49.3136 182.693C52.4627 179.853 53.0245 180.107 54.2005 177.8C55.3765 175.493 56.4219 172.933 58.6824 172.36C60.9429 171.787 62.9421 172.667 64.68 172.52C66.836 172.333 67.4501 170.987 70.3902 170.453C73.2387 169.947 75.2379 172.013 76.4531 174.24C77.6683 176.467 76.9366 176.533 80.4123 177.28C83.888 178.027 84.8419 180.44 85.1163 182.68C85.3776 184.84 89.2062 183.88 87.3507 189.587L48.0984 189.6Z" fill="#006B27"/>
<path d="M72.7552 172.027L68.3517 189.6" stroke="white" stroke-width="1.875" stroke-miterlimit="10"/>
<path d="M81.1832 179.587L70.3248 189.6" stroke="white" stroke-width="1.875" stroke-miterlimit="10"/>
<path d="M86.2661 186.027L72.2456 189.6" stroke="white" stroke-width="1.875" stroke-miterlimit="10"/>
<path d="M58.7739 174.093L66.8883 189.6" stroke="white" stroke-width="1.875" stroke-miterlimit="10"/>
<path d="M51.352 183.6L64.9414 189.6" stroke="white" stroke-width="1.875" stroke-miterlimit="10"/>
</svg>
