<?xml version="1.0" standalone="no"?>
<!DOCTYPE svg PUBLIC "-//W3C//DTD SVG 20010904//EN"
 "http://www.w3.org/TR/2001/REC-SVG-20010904/DTD/svg10.dtd">
<svg version="1.0" xmlns="http://www.w3.org/2000/svg"
 width="900.000000pt" height="900.000000pt" viewBox="0 0 900.000000 900.000000"
 preserveAspectRatio="xMidYMid meet">

<g transform="translate(0.000000,900.000000) scale(0.100000,-0.100000)"
fill="#000000" stroke="none">
<path d="M0 4500 l0 -4500 4500 0 4500 0 0 4500 0 4500 -4500 0 -4500 0 0
-4500z m4689 4329 c195 -43 297 -85 440 -181 106 -72 3390 -3349 3491 -3484
124 -165 168 -267 214 -495 33 -162 33 -256 1 -417 -46 -227 -96 -343 -217
-502 -33 -43 -778 -795 -1740 -1756 -1572 -1570 -1689 -1685 -1780 -1742 -112
-72 -203 -111 -343 -146 -222 -55 -335 -57 -558 -5 -164 37 -256 76 -387 162
-99 66 -204 169 -1791 1756 -1610 1610 -1689 1691 -1757 1794 -79 121 -118
213 -159 374 -24 96 -27 126 -27 273 0 146 3 177 27 272 32 126 65 219 103
285 94 164 119 190 1783 1856 900 901 1667 1664 1704 1695 148 124 288 197
467 243 209 53 344 58 529 18z"/>
<path d="M4320 8575 c-121 -19 -242 -67 -348 -135 -82 -53 -257 -225 -1754
-1722 -1017 -1017 -1682 -1689 -1711 -1730 -57 -80 -118 -208 -143 -303 -26
-98 -27 -361 0 -455 23 -84 82 -210 136 -291 29 -44 554 -576 1654 -1678 886
-887 1649 -1647 1696 -1688 106 -94 204 -152 324 -192 282 -93 581 -48 821
124 33 24 816 801 1740 1727 1555 1557 1684 1689 1727 1763 186 324 165 720
-55 1010 -25 33 -799 812 -1719 1731 -1757 1755 -1700 1701 -1863 1775 -142
64 -346 90 -505 64z m-171 -2035 c48 -70 70 -142 71 -227 0 -100 -37 -196
-148 -386 -164 -278 -302 -518 -302 -522 0 -3 77 -5 170 -5 l171 0 -14 28
c-32 63 -30 76 31 194 33 62 91 166 131 231 39 65 71 122 71 127 0 22 64 80
98 90 46 12 213 13 267 0 25 -5 49 -20 64 -38 46 -56 211 -356 211 -384 0 -39
-29 -51 -112 -46 -64 3 -73 7 -97 34 -14 17 -34 45 -43 63 -17 31 -19 32 -79
29 l-61 -3 -89 -155 c-49 -85 -89 -158 -89 -162 0 -5 117 -8 259 -8 145 0 271
-4 285 -10 19 -7 26 -17 26 -35 0 -57 -128 -267 -175 -287 -44 -19 -984 -19
-1036 0 -29 10 -43 25 -68 72 -18 33 -35 60 -39 60 -4 -1 -24 -28 -45 -61 -53
-85 -68 -90 -284 -89 -135 1 -179 -1 -188 -12 -12 -12 -149 -245 -267 -453
-98 -173 -218 -380 -350 -603 -76 -128 -138 -237 -138 -243 0 -5 590 -9 1543
-9 1274 0 1546 -2 1562 -13 27 -20 13 -74 -39 -150 -56 -82 -127 -131 -230
-157 -78 -20 -110 -20 -1761 -20 -925 0 -1684 3 -1688 6 -3 4 4 21 17 38 13
17 75 119 137 226 193 334 249 430 352 600 54 91 151 253 214 360 63 107 152
258 198 335 45 77 140 239 210 360 171 295 191 325 214 325 36 0 101 -100 125
-192 l13 -53 46 -3 c59 -4 82 9 108 61 20 40 92 163 404 697 73 124 160 273
194 333 55 94 66 107 89 107 21 0 35 -11 61 -50z m2115 -713 c43 -56 78 -145
83 -211 9 -112 -23 -210 -128 -386 -31 -52 -121 -207 -201 -345 -79 -137 -184
-319 -233 -402 -48 -84 -94 -158 -101 -164 -42 -35 -93 26 -139 166 -37 110
-33 182 17 287 20 43 50 97 66 120 16 24 112 189 214 368 190 333 286 497 329
562 31 48 59 49 93 5z m525 -525 c53 -42 145 -187 275 -434 l57 -107 -32 -62
c-46 -92 -148 -269 -177 -307 -53 -73 -48 -72 -423 -72 -185 0 -351 3 -368 6
-18 4 -39 17 -47 29 -19 28 -4 71 59 175 80 131 63 124 315 128 240 3 237 3
272 72 9 19 31 60 48 90 39 67 40 99 6 140 -25 29 -30 31 -83 28 -55 -3 -57
-4 -86 -50 -39 -62 -80 -82 -156 -76 -66 5 -81 15 -81 51 0 25 91 192 171 312
77 116 167 144 250 77z m-1530 -137 c20 -17 41 -54 61 -107 60 -156 40 -273
-83 -481 -29 -51 -65 -112 -79 -137 -15 -25 -43 -61 -63 -80 l-36 -35 -577 -5
-576 -5 -27 -40 c-15 -22 -25 -43 -23 -47 2 -4 556 -7 1231 -7 888 -1 1230 -4
1240 -12 50 -42 -68 -218 -186 -279 -101 -51 -76 -50 -1523 -49 -741 0 -1350
4 -1352 8 -3 4 5 23 18 42 13 19 112 189 221 379 324 566 345 600 377 600 45
0 106 -104 132 -222 l6 -28 428 0 c235 0 432 4 438 8 5 4 28 39 50 77 143 248
248 422 262 433 22 17 26 16 61 -13z m541 -1454 c14 -10 35 -33 47 -51 l23
-32 9 24 c23 61 111 100 176 78 121 -40 141 -229 30 -276 -74 -31 -157 -6
-193 56 -9 16 -20 30 -23 30 -3 0 -12 -15 -21 -33 -28 -59 -123 -86 -186 -53
-54 28 -75 62 -80 125 -3 41 1 67 12 89 35 67 141 89 206 43z"/>
</g>
</svg>
